<svg height="512pt" viewBox="0 -89 512 512" width="512pt" xmlns="http://www.w3.org/2000/svg"><path d="m421.082031 264.722656h-387.664062c-14.3125 0-25.917969-11.605468-25.917969-25.917968v-205.386719c0-14.3125 11.605469-25.917969 25.917969-25.917969h387.664062c14.3125 0 25.917969 11.605469 25.917969 25.917969v205.386719c0 14.316406-11.605469 25.917968-25.917969 25.917968zm0 0" fill="#10bb67"/><path d="m421.082031 7.5h-3.34375v202.042969c0 14.316406-11.601562 25.917969-25.917969 25.917969h-384.320312v3.34375c0 14.3125 11.605469 25.917968 25.917969 25.917968h387.664062c14.3125 0 25.917969-11.605468 25.917969-25.917968v-205.386719c0-14.3125-11.605469-25.917969-25.917969-25.917969zm0 0" fill="#0d9653"/><path d="m45 87.449219v93.417969c20.359375 0 36.863281 16.503906 36.863281 36.867187 0 1.320313-.070312 2.621094-.207031 3.90625h291.183594c-.132813-1.285156-.207032-2.585937-.207032-3.90625 0-20.363281 16.503907-36.867187 36.863282-36.867187v-93.417969c-20.359375 0-36.863282-16.503907-36.863282-36.863281h-290.769531c0 20.359374-16.503906 36.863281-36.863281 36.863281zm0 0" fill="#32d736"/><path d="m381.898438 75.011719v59.132812c0 9.621094-5.738282 18.304688-14.574219 22.113281-9.492188 4.09375-16.894531 12.050782-20.28125 21.832032-3.320313 9.605468-12.496094 15.949218-22.65625 15.949218h-251.152344c5.382813 6.40625 8.628906 14.671876 8.628906 23.695313 0 1.316406-.070312 2.621094-.207031 3.90625h291.183594c-.132813-1.285156-.207032-2.585937-.207032-3.90625 0-20.363281 16.503907-36.867187 36.863282-36.867187v-93.417969c-10.984375 0-20.84375-4.8125-27.597656-12.4375zm0 0" fill="#2ab52d"/><path d="m284.019531 136.113281c0 31.351563-25.417969 56.765625-56.769531 56.765625s-56.769531-25.414062-56.769531-56.765625c0-31.351562 25.417969-56.769531 56.769531-56.769531s56.769531 25.417969 56.769531 56.769531zm0 0" fill="#c5c9f7"/><path d="m504.5 238.863281c0 48.460938-39.285156 87.75-87.75 87.75s-87.75-39.289062-87.75-87.75c0-48.464843 39.285156-87.75 87.75-87.75s87.75 39.285157 87.75 87.75zm0 0" fill="#17ace8"/><path d="m468.085938 167.691406c10.429687 14.4375 16.582031 32.167969 16.582031 51.335938 0 48.464844-39.289063 87.75-87.75 87.75-19.171875 0-36.902344-6.148438-51.335938-16.582032 15.9375 22.058594 41.875 36.414063 71.167969 36.414063 48.464844 0 87.75-39.285156 87.75-87.75 0-29.289063-14.355469-55.226563-36.414062-71.167969zm0 0" fill="#1391c4"/><path d="m291.519531 136.113281c0-35.4375-28.832031-64.269531-64.269531-64.269531s-64.269531 28.832031-64.269531 64.269531 28.832031 64.265625 64.269531 64.265625 64.269531-28.828125 64.269531-64.265625zm-113.539062 0c0-27.167969 22.105469-49.269531 49.269531-49.269531s49.269531 22.101562 49.269531 49.269531c0 27.164063-22.105469 49.265625-49.269531 49.265625s-49.269531-22.101562-49.269531-49.265625zm0 0"/><path d="m454.5 151.414062v-117.996093c0-18.425781-14.992188-33.417969-33.417969-33.417969h-60.582031c-4.144531 0-7.5 3.359375-7.5 7.5s3.355469 7.5 7.5 7.5h60.582031c10.15625 0 18.417969 8.261719 18.417969 18.417969v112.929687c-7.328125-1.800781-14.859375-2.714844-22.5-2.734375v-56.164062c0-4.140625-3.355469-7.5-7.5-7.5-16.191406 0-29.363281-13.171875-29.363281-29.363281 0-4.144532-3.359375-7.5-7.5-7.5h-222.636719c-4.144531 0-7.5 3.355468-7.5 7.5 0 4.140624 3.355469 7.5 7.5 7.5h215.769531c3.15625 18.460937 17.765625 33.070312 36.230469 36.230468v50.4375c-37.570312 5.863282-67.671875 33.6875-77.253906 69.386719h-235.523438c-1.632812-20.285156-16.972656-36.761719-36.722656-40.136719v-79.6875c18.464844-3.15625 33.074219-17.765625 36.230469-36.230468h33.269531c4.144531 0 7.5-3.359376 7.5-7.5 0-4.144532-3.355469-7.5-7.5-7.5h-40.136719c-4.140625 0-7.5 3.355468-7.5 7.5 0 16.191406-13.171875 29.363281-29.363281 29.363281-4.144531 0-7.5 3.359375-7.5 7.5v93.417969c0 4.144531 3.355469 7.5 7.5 7.5 16.191406 0 29.363281 13.175781 29.363281 29.367187 0 3.039063-1.003906 5.898437 1.722657 8.921875 4.246093 4.722656-5.945313 1.554688 245.90625 2.484375-.953126 9.355469-.519532 18.875 1.277343 28.082031h-289.851562c-10.15625 0-18.417969-8.261718-18.417969-18.417968v-205.386719c0-10.15625 8.261719-18.417969 18.417969-18.417969h299.082031c4.144531 0 7.5-3.359375 7.5-7.5s-3.355469-7.5-7.5-7.5h-299.082031c-18.425781 0-33.417969 14.992188-33.417969 33.417969v205.386719c0 18.425781 14.992188 33.417968 33.417969 33.417968h294.109375c13.550781 36.117188 48.433594 61.886719 89.222656 61.886719 52.519531 0 95.25-42.726563 95.25-95.25 0-39.117187-23.703125-72.800781-57.5-87.445313zm-37.75 167.699219c-67.605469 0-104.535156-78.628906-62.335938-130.742187 47.363282-58.253906 142.585938-25.199219 142.585938 50.492187 0 44.25-36 80.25-80.25 80.25zm0 0"/><path d="m462.132812 231.363281h-37.882812v-37.882812c0-4.140625-3.355469-7.5-7.5-7.5s-7.5 3.359375-7.5 7.5v37.882812h-37.882812c-4.144532 0-7.5 3.355469-7.5 7.5 0 4.140625 3.355468 7.5 7.5 7.5h37.882812v37.878907c0 4.144531 3.355469 7.5 7.5 7.5s7.5-3.355469 7.5-7.5v-37.878907h37.882812c4.144532 0 7.5-3.359375 7.5-7.5 0-4.144531-3.359374-7.5-7.5-7.5zm0 0"/></svg>