<svg id="Layer_1" enable-background="new 0 0 512 512" height="512" viewBox="0 0 512 512" width="512" xmlns="http://www.w3.org/2000/svg"><g><g><path d="m356.08 50.01v411.98c0 23.48-19.05 42.51-42.53 42.51h-215.1c-23.48 0-42.53-19.03-42.53-42.51v-411.98c0-23.48 19.05-42.51 42.53-42.51h215.1c23.48 0 42.53 19.03 42.53 42.51z" fill="#56788b"/><path d="m356.08 50.01v411.98c0 23.48-19.05 42.51-42.53 42.51h-215.1c-23.48 0-42.53-19.03-42.53-42.51v-28.5c0 23.48 19.05 42.51 42.53 42.51h185.08c23.49 0 42.53-19.03 42.53-42.51v-383.48c0-23.48-19.04-42.51-42.53-42.51h30.02c23.48 0 42.53 19.03 42.53 42.51z" fill="#415e6f"/><path d="m326.06 49.52v412.96c0 7.47-6.06 13.52-13.52 13.52h-213.08c-7.46 0-13.52-6.05-13.52-13.52v-412.96c0-7.47 6.06-13.52 13.52-13.52h36c0 10.14 8.22 18.35 18.36 18.35h104.36c10.14 0 18.36-8.21 18.36-18.35h36c7.46 0 13.52 6.05 13.52 13.52z" fill="#fdeda5"/><g><path d="m326.06 49.52v412.96c0 7.47-6.06 13.52-13.52 13.52h-213.08c-7.46 0-13.52-6.05-13.52-13.52v-26.85c0 7.47 6.06 13.52 13.52 13.52h149.79c16.12 0 23.58-20.02 11.39-30.57l-27.03-23.38c-3.58-3.09-8.16-4.8-12.89-4.8h-48.26c-24.37 0-44.13-19.76-44.13-44.13v-225.06c0-24.37 19.76-44.13 44.13-44.13h107.28c9.02 0 16.32-7.31 16.32-16.32v-24.76h16.48c7.46 0 13.52 6.05 13.52 13.52z" fill="#fbdf63"/><path d="m285.858 9.564c-1.063-.269-2.176-.411-3.323-.411z" fill="#dae1ea"/></g><path d="m456.08 123.34v221.77c0 10.21-8.28 18.49-18.49 18.49h-63.99l-67.6 57.6-67.6-57.6h-63.99c-10.21 0-18.49-8.28-18.49-18.49v-221.77c0-10.21 8.28-18.49 18.49-18.49h263.18c10.21 0 18.49 8.28 18.49 18.49z" fill="#a267f8"/><path d="m456.08 123.34v221.77c0 10.21-8.28 18.49-18.49 18.49h-30c10.21 0 18.49-8.28 18.49-18.49v-221.77c0-10.21-8.28-18.49-18.49-18.49h30c10.21 0 18.49 8.28 18.49 18.49z" fill="#7e42b9"/></g><g><path d="m364.719 244.928c11.499 0 20.821 9.322 20.821 20.821 0 7.327-5.94 13.267-13.267 13.267l-66.273 10-66.273-10c-7.327 0-13.267-5.94-13.267-13.267 0-11.499 9.322-20.821 20.821-20.821l58.719-10z" fill="#8b153b"/><path d="m383.636 279.016h-155.271c-7.327 0-13.267 5.94-13.267 13.267 0 11.499 9.322 20.821 20.821 20.821h140.163c11.499 0 20.821-9.322 20.821-20.821 0-7.327-5.94-13.267-13.267-13.267z" fill="#f79e60"/><path d="m247.281 210.839c-11.499 0-20.821 9.322-20.821 20.821 0 7.327 5.94 13.267 13.267 13.267h10.378c9.413 0 17.044 7.631 17.044 17.044 0 9.413 7.631 17.044 17.044 17.044 9.413 0 17.044-7.631 17.044-17.044 0-9.413 7.631-17.044 17.044-17.044h53.99c7.327 0 13.267-5.94 13.267-13.267 0-11.499-9.322-20.821-20.821-20.821l-58.719-10z" fill="#fbdf63"/><path d="m378.24 210.839c10.307 0 18.663-8.356 18.663-18.663 0-17.933-14.537-32.47-32.47-32.47h-116.866c-17.933 0-32.47 14.537-32.47 32.47 0 10.307 8.356 18.663 18.663 18.663z" fill="#f79e60"/></g></g><g><path d="m248.175 449.186c4.142 0 7.5-3.358 7.5-7.5s-3.358-7.5-7.5-7.5h-84.35c-4.142 0-7.5 3.358-7.5 7.5s3.358 7.5 7.5 7.5z"/><path d="m141.605 476c0 4.142 3.358 7.5 7.5 7.5h163.431c11.593 0 21.025-9.429 21.025-21.018v-19.256c0-4.142-3.358-7.5-7.5-7.5s-7.5 3.358-7.5 7.5v19.256c0 3.318-2.703 6.018-6.025 6.018h-163.431c-4.142 0-7.5 3.358-7.5 7.5z"/><path d="m326.061 84.726c4.142 0 7.5-3.358 7.5-7.5v-27.707c0-11.59-9.432-21.019-21.025-21.019h-35.994c-4.142 0-7.5 3.358-7.5 7.5 0 5.984-4.873 10.853-10.861 10.853h-104.36c-5.989 0-10.861-4.868-10.861-10.853 0-4.142-3.358-7.5-7.5-7.5h-35.995c-11.593 0-21.025 9.429-21.025 21.019v412.963c0 11.589 9.432 21.018 21.025 21.018h14.287c4.142 0 7.5-3.358 7.5-7.5s-3.358-7.5-7.5-7.5h-14.287c-3.322 0-6.025-2.7-6.025-6.018v-412.963c0-3.319 2.703-6.019 6.025-6.019h29.604c3.223 10.61 13.1 18.353 24.752 18.353h104.359c11.652 0 21.529-7.743 24.752-18.353h29.604c3.322 0 6.025 2.7 6.025 6.019v27.708c0 4.141 3.358 7.499 7.5 7.499z"/><path d="m55.925 73.866c4.142 0 7.5-3.358 7.5-7.5v-16.359c0-19.303 15.713-35.007 35.028-35.007h215.095c19.314 0 35.028 15.704 35.028 35.007v27.219c0 4.142 3.358 7.5 7.5 7.5s7.5-3.358 7.5-7.5v-27.219c-.001-27.574-22.443-50.007-50.028-50.007h-215.095c-27.586 0-50.028 22.433-50.028 50.007v16.359c0 4.142 3.357 7.5 7.5 7.5z"/><path d="m356.075 410.726c-4.142 0-7.5 3.358-7.5 7.5v43.767c0 19.303-15.713 35.007-35.028 35.007h-215.094c-19.315 0-35.028-15.704-35.028-35.007v-360.682c0-4.142-3.358-7.5-7.5-7.5s-7.5 3.358-7.5 7.5v360.683c0 27.574 22.442 50.007 50.028 50.007h215.095c27.585 0 50.028-22.433 50.028-50.007v-43.767c-.001-4.143-3.358-7.501-7.501-7.501z"/><path d="m456.075 280.934c4.142 0 7.5-3.358 7.5-7.5v-150.093c0-14.33-11.659-25.988-25.989-25.988h-263.173c-14.33 0-25.989 11.658-25.989 25.988v221.769c0 14.331 11.659 25.989 25.989 25.989h61.226l65.497 55.807c1.401 1.194 3.133 1.792 4.864 1.792s3.463-.597 4.864-1.792l65.497-55.807h61.226c14.33 0 25.989-11.659 25.989-25.989v-36.689c0-4.142-3.358-7.5-7.5-7.5s-7.5 3.358-7.5 7.5v36.689c0 6.06-4.93 10.989-10.989 10.989h-63.988c-1.783 0-3.507.635-4.864 1.792l-62.735 53.453-62.734-53.454c-1.357-1.156-3.082-1.792-4.864-1.792h-63.988c-6.059 0-10.989-4.93-10.989-10.989v-221.768c0-6.059 4.93-10.988 10.989-10.988h263.173c6.059 0 10.989 4.929 10.989 10.988v150.092c-.001 4.143 3.357 7.501 7.499 7.501z"/><path d="m404.403 192.176c0-22.04-17.931-39.97-39.97-39.97h-116.866c-22.04 0-39.97 17.931-39.97 39.97 0 10.797 6.574 20.087 15.93 24.078-2.888 4.437-4.567 9.729-4.567 15.406 0 6.158 2.695 11.699 6.967 15.506-4.337 4.977-6.967 11.479-6.967 18.583 0 2.602.481 5.093 1.358 7.39-7.467 3.15-12.721 10.546-12.721 19.145 0 15.616 12.705 28.321 28.321 28.321h140.163c15.616 0 28.321-12.705 28.321-28.321 0-8.6-5.254-15.995-12.721-19.145.878-2.297 1.358-4.788 1.358-7.39 0-7.104-2.63-13.606-6.967-18.583 4.272-3.807 6.967-9.347 6.967-15.506 0-5.677-1.68-10.969-4.567-15.406 9.357-3.991 15.931-13.281 15.931-24.078zm-154.298 60.252c5.263 0 9.544 4.281 9.544 9.544 0 3.383.688 6.609 1.932 9.544h-21.854c-3.18 0-5.768-2.587-5.768-5.768 0-7.345 5.976-13.321 13.321-13.321h2.825zm125.977 53.176h-140.163c-7.345 0-13.321-5.976-13.321-13.321 0-3.18 2.587-5.767 5.768-5.767h155.271c3.18 0 5.768 2.587 5.768 5.768-.002 7.345-5.978 13.32-13.323 13.32zm-11.363-53.176c7.345 0 13.321 5.976 13.321 13.321 0 3.18-2.587 5.768-5.768 5.768h-65.466c1.244-2.935 1.932-6.161 1.932-9.544 0-5.263 4.282-9.544 9.544-9.544h46.437zm13.521-49.089h-83.56c-4.142 0-7.5 3.358-7.5 7.5s3.358 7.5 7.5 7.5h70.039c7.345 0 13.321 5.976 13.321 13.321 0 3.18-2.587 5.768-5.768 5.768h-53.99c-13.534 0-24.544 11.01-24.544 24.544 0 5.263-4.281 9.544-9.544 9.544s-9.544-4.282-9.544-9.544c0-13.534-11.011-24.544-24.544-24.544h-10.377c-3.18 0-5.768-2.587-5.768-5.768 0-7.345 5.976-13.321 13.321-13.321h12.964c4.142 0 7.5-3.358 7.5-7.5s-3.358-7.5-7.5-7.5h-26.486c-6.155 0-11.163-5.007-11.163-11.163 0-13.769 11.201-24.97 24.97-24.97h116.866c13.769 0 24.97 11.202 24.97 24.97 0 6.156-5.008 11.163-11.163 11.163z"/></g></svg>