<svg id="icons" enable-background="new 0 0 64 64" height="512" viewBox="0 0 64 64" width="512" xmlns="http://www.w3.org/2000/svg"><path d="m63 9h-62v-2c0-1.11.89-2 2-2h58c1.11 0 2 .89 2 2z" fill="#d7e9ff"/><path d="m51 30c-1.74 0-3.22 1.11-3.77 2.66-1.36-1.09-2.23-2.78-2.23-4.66 0-3.31 2.69-6 6-6 3.32 0 6 2.69 6 6 0 1.88-.87 3.57-2.23 4.66-.55-1.55-2.03-2.66-3.77-2.66 1.11 0 2-.9 2-2 0-1.11-.89-2-2-2-1.1 0-2 .89-2 2 0 1.1.9 2 2 2z" fill="#94c1ff"/><path d="m53 28c0 1.1-.89 2-2 2-1.1 0-2-.9-2-2 0-1.11.9-2 2-2 1.11 0 2 .89 2 2z" fill="#fff"/><path d="m51 30c1.74 0 3.22 1.11 3.77 2.66-1.03.84-2.34 1.34-3.77 1.34s-2.74-.5-3.77-1.34c.55-1.55 2.03-2.66 3.77-2.66z" fill="#d7e9ff"/><path d="m59 28v27h-16v-27h2c0 1.88.87 3.57 2.23 4.66 1.03.84 2.34 1.34 3.77 1.34s2.74-.5 3.77-1.34c1.36-1.09 2.23-2.78 2.23-4.66z" fill="#d7e9ff"/><path d="m34 28c0 1.1-.89 2-2 2-1.1 0-2-.9-2-2 0-1.11.9-2 2-2 1.11 0 2 .89 2 2z" fill="#fff"/><path d="m40 28v27h-16v-27h2c0 1.88.87 3.57 2.23 4.66 1.03.84 2.34 1.34 3.77 1.34s2.74-.5 3.77-1.34c1.36-1.09 2.23-2.78 2.23-4.66z" fill="#d7e9ff"/><path d="m32 30c1.74 0 3.22 1.11 3.77 2.66-1.03.84-2.34 1.34-3.77 1.34s-2.74-.5-3.77-1.34c.55-1.55 2.03-2.66 3.77-2.66z" fill="#d7e9ff"/><path d="m30 28c0 1.1.9 2 2 2-1.74 0-3.22 1.11-3.77 2.66-1.36-1.09-2.23-2.78-2.23-4.66 0-3.31 2.69-6 6-6 3.32 0 6 2.69 6 6 0 1.88-.87 3.57-2.23 4.66-.55-1.55-2.03-2.66-3.77-2.66 1.11 0 2-.9 2-2 0-1.11-.89-2-2-2-1.1 0-2 .89-2 2z" fill="#94c1ff"/><path d="m21 28v27h-16v-27h2c0 1.88.87 3.57 2.23 4.66 1.03.84 2.34 1.34 3.77 1.34s2.74-.5 3.77-1.34c1.36-1.09 2.23-2.78 2.23-4.66z" fill="#d7e9ff"/><path d="m11 28c0 1.1.9 2 2 2-1.74 0-3.22 1.11-3.77 2.66-1.36-1.09-2.23-2.78-2.23-4.66 0-3.31 2.69-6 6-6 3.32 0 6 2.69 6 6 0 1.88-.87 3.57-2.23 4.66-.55-1.55-2.03-2.66-3.77-2.66 1.11 0 2-.9 2-2 0-1.11-.89-2-2-2-1.1 0-2 .89-2 2z" fill="#94c1ff"/><path d="m13 30c1.74 0 3.22 1.11 3.77 2.66-1.03.84-2.34 1.34-3.77 1.34s-2.74-.5-3.77-1.34c.55-1.55 2.03-2.66 3.77-2.66z" fill="#d7e9ff"/><path d="m15 28c0 1.1-.89 2-2 2-1.1 0-2-.9-2-2 0-1.11.9-2 2-2 1.11 0 2 .89 2 2z" fill="#fff"/><path d="m63 9v50h-62v-50zm-4 46v-27h-2c0-3.31-2.68-6-6-6-3.31 0-6 2.69-6 6h-2v27zm-19 0v-27h-2c0-3.31-2.68-6-6-6-3.31 0-6 2.69-6 6h-2v27zm-19 0v-27h-2c0-3.31-2.68-6-6-6-3.31 0-6 2.69-6 6h-2v27z" fill="#fff"/><g fill="#116fff"><path d="m1 7.998c-.553 0-1-.448-1-1 0-1.654 1.346-3 3-3 .553 0 1 .448 1 1s-.447 1-1 1c-.552 0-1 .449-1 1 0 .552-.447 1-1 1z"/><path d="m63 7.998c-.553 0-1-.448-1-1 0-.551-.448-1-1-1-.553 0-1-.448-1-1s.447-1 1-1c1.654 0 3 1.346 3 3 0 .552-.447 1-1 1z"/><path d="m61 5.998h-58c-.553 0-1-.448-1-1s.447-1 1-1h58c.553 0 1 .448 1 1s-.447 1-1 1z"/><path d="m4.03 7.998c-.553 0-1.005-.448-1.005-1s.442-1 .994-1h.011c.552 0 1 .448 1 1s-.448 1-1 1z"/><path d="m7.029 7.998c-.553 0-1.005-.448-1.005-1s.442-1 .994-1h.011c.552 0 1 .448 1 1s-.448 1-1 1z"/><path d="m10.032 7.998c-.553 0-1.005-.448-1.005-1s.442-1 .994-1h.011c.552 0 1 .448 1 1s-.448 1-1 1z"/><path d="m1 60.002c-.553 0-1-.447-1-1v-52.004c0-.552.447-1 1-1s1 .448 1 1v52.004c0 .553-.447 1-1 1z"/><path d="m63 60.002c-.553 0-1-.447-1-1v-52.004c0-.552.447-1 1-1s1 .448 1 1v52.004c0 .553-.447 1-1 1z"/><path d="m63 9.998h-62c-.553 0-1-.448-1-1s.447-1 1-1h62c.553 0 1 .448 1 1s-.447 1-1 1z"/><path d="m63 60.002h-62c-.553 0-1-.447-1-1s.447-1 1-1h62c.553 0 1 .447 1 1s-.447 1-1 1z"/><path d="m13.002 35c-3.859 0-7-3.141-7-7.001s3.141-7 7-7 7 3.14 7 7-3.141 7.001-7 7.001zm0-12.001c-2.757 0-5 2.243-5 5s2.243 5.001 5 5.001 5-2.244 5-5.001-2.243-5-5-5z"/><path d="m13.002 30.999c-1.654 0-3-1.346-3-3s1.346-3 3-3 3 1.346 3 3-1.346 3-3 3zm0-4c-.552 0-1 .449-1 1s.448 1 1 1 1-.449 1-1-.448-1-1-1z"/><path d="m9.229 33.665c-.11 0-.224-.019-.334-.058-.521-.184-.793-.755-.608-1.276.705-1.993 2.6-3.332 4.714-3.332 2.115 0 4.01 1.339 4.714 3.333.185.521-.089 1.092-.609 1.276-.521.187-1.092-.088-1.275-.609-.423-1.196-1.56-2-2.829-2s-2.405.804-2.829 2c-.146.41-.531.666-.944.666z"/><path d="m21 56.004h-15.998c-.553 0-1-.447-1-1v-27.006c0-.552.447-1 1-1h2.003c.553 0 1 .448 1 1s-.447 1-1 1h-1.003v25.006h13.998v-25.006h-.995c-.553 0-1-.448-1-1s.447-1 1-1h1.995c.553 0 1 .448 1 1v27.006c0 .553-.447 1-1 1z"/><path d="m17 40.001h-8c-.553 0-1-.447-1-1s.447-1 1-1h8c.553 0 1 .447 1 1s-.447 1-1 1z"/><path d="m17 43.001h-8c-.553 0-1-.447-1-1s.447-1 1-1h8c.553 0 1 .447 1 1s-.447 1-1 1z"/><path d="m15.001 46.001h-4.002c-.553 0-1-.447-1-1s.447-1 1-1h4.002c.553 0 1 .447 1 1s-.447 1-1 1z"/><path d="m10.023 51.006c-.553 0-1.005-.447-1.005-1s.442-1 .994-1h.011c.552 0 1 .447 1 1s-.448 1-1 1z"/><path d="m13.022 51.006c-.553 0-1.005-.447-1.005-1s.442-1 .994-1h.011c.552 0 1 .447 1 1s-.448 1-1 1z"/><path d="m16.025 51.006c-.553 0-1.005-.447-1.005-1s.442-1 .994-1h.011c.552 0 1 .447 1 1s-.448 1-1 1z"/><path d="m32.002 35c-3.859 0-7-3.141-7-7.001s3.141-7 7-7 7 3.14 7 7-3.141 7.001-7 7.001zm0-12.001c-2.757 0-5 2.243-5 5s2.243 5.001 5 5.001 5-2.244 5-5.001-2.243-5-5-5z"/><path d="m32.002 30.999c-1.654 0-3-1.346-3-3s1.346-3 3-3 3 1.346 3 3-1.346 3-3 3zm0-4c-.552 0-1 .449-1 1s.448 1 1 1 1-.449 1-1-.448-1-1-1z"/><path d="m28.229 33.665c-.11 0-.224-.019-.334-.058-.521-.184-.793-.755-.608-1.276.705-1.993 2.6-3.332 4.714-3.332 2.115 0 4.01 1.339 4.714 3.333.185.521-.089 1.092-.609 1.276-.521.187-1.092-.088-1.275-.609-.423-1.196-1.56-2-2.829-2s-2.405.804-2.829 2c-.146.41-.531.666-.944.666z"/><path d="m40 56.004h-15.998c-.553 0-1-.447-1-1v-27.006c0-.552.447-1 1-1h2.003c.553 0 1 .448 1 1s-.447 1-1 1h-1.003v25.006h13.998v-25.006h-.995c-.553 0-1-.448-1-1s.447-1 1-1h1.995c.553 0 1 .448 1 1v27.006c0 .553-.447 1-1 1z"/><path d="m36 40.001h-8c-.553 0-1-.447-1-1s.447-1 1-1h8c.553 0 1 .447 1 1s-.447 1-1 1z"/><path d="m36 43.001h-8c-.553 0-1-.447-1-1s.447-1 1-1h8c.553 0 1 .447 1 1s-.447 1-1 1z"/><path d="m34.001 46.001h-4.002c-.553 0-1-.447-1-1s.447-1 1-1h4.002c.553 0 1 .447 1 1s-.447 1-1 1z"/><path d="m29.023 51.006c-.553 0-1.005-.447-1.005-1s.442-1 .994-1h.011c.552 0 1 .447 1 1s-.448 1-1 1z"/><path d="m32.022 51.006c-.553 0-1.005-.447-1.005-1s.442-1 .994-1h.011c.552 0 1 .447 1 1s-.448 1-1 1z"/><path d="m35.025 51.006c-.553 0-1.005-.447-1.005-1s.442-1 .994-1h.011c.552 0 1 .447 1 1s-.448 1-1 1z"/><path d="m51.002 35c-3.859 0-7-3.141-7-7.001s3.141-7 7-7 7 3.14 7 7-3.141 7.001-7 7.001zm0-12.001c-2.757 0-5 2.243-5 5s2.243 5.001 5 5.001 5-2.244 5-5.001-2.243-5-5-5z"/><path d="m51.002 30.999c-1.654 0-3-1.346-3-3s1.346-3 3-3 3 1.346 3 3-1.346 3-3 3zm0-4c-.552 0-1 .449-1 1s.448 1 1 1 1-.449 1-1-.448-1-1-1z"/><path d="m47.229 33.665c-.11 0-.224-.019-.334-.058-.521-.184-.793-.755-.608-1.276.705-1.993 2.6-3.332 4.714-3.332 2.115 0 4.01 1.339 4.714 3.333.185.521-.089 1.092-.609 1.276-.522.187-1.092-.088-1.275-.609-.423-1.196-1.56-2-2.829-2s-2.405.804-2.829 2c-.146.41-.531.666-.944.666z"/><path d="m59 56.004h-15.998c-.553 0-1-.447-1-1v-27.006c0-.552.447-1 1-1h2.003c.553 0 1 .448 1 1s-.447 1-1 1h-1.003v25.006h13.998v-25.006h-.995c-.553 0-1-.448-1-1s.447-1 1-1h1.995c.553 0 1 .448 1 1v27.006c0 .553-.447 1-1 1z"/><path d="m55 40.001h-8c-.553 0-1-.447-1-1s.447-1 1-1h8c.553 0 1 .447 1 1s-.447 1-1 1z"/><path d="m55 43.001h-8c-.553 0-1-.447-1-1s.447-1 1-1h8c.553 0 1 .447 1 1s-.447 1-1 1z"/><path d="m53.001 46.001h-4.002c-.553 0-1-.447-1-1s.447-1 1-1h4.002c.553 0 1 .447 1 1s-.447 1-1 1z"/><path d="m48.023 51.006c-.553 0-1.005-.447-1.005-1s.442-1 .994-1h.011c.552 0 1 .447 1 1s-.448 1-1 1z"/><path d="m51.022 51.006c-.553 0-1.005-.447-1.005-1s.442-1 .994-1h.011c.552 0 1 .447 1 1s-.448 1-1 1z"/><path d="m54.025 51.006c-.553 0-1.005-.447-1.005-1s.442-1 .994-1h.011c.552 0 1 .447 1 1s-.448 1-1 1z"/><path d="m51 14.999h-38c-.553 0-1-.448-1-1s.447-1 1-1h38c.553 0 1 .448 1 1s-.447 1-1 1z"/><path d="m44 17.998h-24c-.553 0-1-.448-1-1s.447-1 1-1h24c.553 0 1 .448 1 1s-.447 1-1 1z"/></g></svg>