<svg height="496pt" viewBox="0 0 496 496" width="496pt" xmlns="http://www.w3.org/2000/svg" xmlns:xlink="http://www.w3.org/1999/xlink"><linearGradient id="a" gradientUnits="userSpaceOnUse" x1="248" x2="248" y1="496" y2="0"><stop offset="0" stop-color="#9f2fff"/><stop offset="1" stop-color="#0bb1d3"/></linearGradient><path d="m195.105469 378.71875 11.359375 11.265625c-16.640625 16.777344-38.824219 26.015625-62.464844 26.015625-48.519531 0-88-39.480469-88-88s39.480469-88 88-88c24.191406 0 47.574219 10.121094 64.152344 27.761719l-11.65625 10.949219c-13.769532-14.648438-32.40625-22.710938-52.496094-22.710938-39.703125 0-72 32.296875-72 72s32.296875 72 72 72c19.335938 0 37.488281-7.550781 51.105469-21.28125zm271.0625-88.566406 29.832031 7.640625v60.421875l-29.832031 7.640625c-2.335938 7.558593-5.359375 14.863281-9.007813 21.792969l15.6875 26.480468-42.726562 42.726563-26.480469-15.6875c-6.921875 3.648437-14.226563 6.671875-21.792969 9.007812l-7.640625 29.824219h-60.421875l-7.640625-29.832031c-7.558593-2.335938-14.863281-5.359375-21.792969-9.007813l-26.480468 15.6875-6.855469-6.855468-.71875 9.160156c-1.625 20.664062-19.136719 36.847656-39.863281 36.847656h-132.867188c-20.726562 0-38.238281-16.183594-39.871094-36.855469l-21.085937-267.144531h-16.609375v-24c0-22.054688 17.945312-40 40-40h82.199219l35.5625-128h146.238281v48h-109.761719l-22.222656 80h75.984375c22.054688 0 40 17.945312 40 40v24h-16.609375l-1.144531 14.488281 14.105468 8.351563c6.929688-3.648438 14.234376-6.671875 21.800782-9.007813l7.640625-29.832031h60.421875l7.640625 29.832031c7.558593 2.335938 14.863281 5.359375 21.792969 9.007813l26.480468-15.6875 42.726563 42.726562-15.6875 26.480469c3.640625 6.921875 6.664062 14.226563 9 21.792969zm-106.167969 13.847656v48h8c13.230469 0 24-10.769531 24-24s-10.769531-24-24-24zm-16 0h-16v48h16zm-32 48v-16h-128v16zm-144-42.214844-31.871094 18.214844 31.871094 18.214844zm144-5.785156h-128v16h128zm-173.191406-176h16.597656l26.683594-96h105.910156v-16h-118.089844zm-122.808594 48h256v-8c0-13.230469-10.769531-24-24-24h-208c-13.230469 0-24 10.769531-24 24zm225.441406 192h-67.570312l-70-40 70-40h73.890625l7.582031-96h-222.6875l20.992188 265.878906c.976562 12.410156 11.488281 22.121094 23.917968 22.121094h132.859375c12.4375 0 22.941407-9.710938 23.917969-22.113281zm238.558594-57.792969-26.761719-6.847656-1.214843-4.503906c-2.527344-9.398438-6.230469-18.359375-11.007813-26.648438l-2.335937-4.046875 14.074218-23.746094-25.167968-25.167968-23.746094 14.074218-4.046875-2.335937c-8.289063-4.777344-17.25-8.480469-26.648438-11.007813l-4.503906-1.214843-6.847656-26.761719h-35.578125l-6.847656 26.761719-4.503907 1.214843c-9.398437 2.527344-18.359375 6.230469-26.648437 11.007813l-4.046875 2.335937-15.3125-9.0625-5.039063 63.742188h104.183594c22.054688 0 40 17.945312 40 40s-17.945312 40-40 40h-110.503906l-4.816406 61.015625 7.726562 7.726563 23.746094-14.070313 4.046875 2.335937c8.289062 4.777344 17.25 8.480469 26.648437 11.007813l4.503906 1.214844 6.855469 26.769531h35.578125l6.847656-26.761719 4.503907-1.214843c9.398437-2.527344 18.359375-6.230469 26.648437-11.007813l4.046875-2.335937 23.742188 14.074218 25.167969-25.167968-14.070313-23.746094 2.335937-4.046875c4.777344-8.289063 8.480469-17.25 11.007813-26.648438l1.214844-4.503906 26.769531-6.847656zm-136-78.207031c-24.878906 0-48.480469 9.488281-66.441406 26.703125l11.082031 11.542969c14.960937-14.351563 34.625-22.246094 55.359375-22.246094 44.113281 0 80 35.886719 80 80s-35.886719 80-80 80c-19.992188 0-39.121094-7.40625-53.863281-20.855469l-10.785157 11.832031c17.703126 16.136719 40.65625 25.023438 64.648438 25.023438 52.9375 0 96-43.0625 96-96s-43.0625-96-96-96zm0 0" fill="url(#a)"/></svg>